<?xml version="1.0" encoding="UTF-8"?>
<svg width="512px" height="512px" viewBox="0 0 512 512" version="1.1" xmlns="http://www.w3.org/2000/svg" xmlns:xlink="http://www.w3.org/1999/xlink">
    <title>Slice</title>
    <g id="Workspace" stroke="none" stroke-width="1" fill="none" fill-rule="evenodd">
        <g id="OSS-Logo" transform="translate(-0.000000, 0.000000)">
            <polygon id="Path" fill="#E3F3FB" points="463.597485 169.989414 436.981415 74.9785283 341.970529 48.3624584 377.594209 134.365735"></polygon>
            <polygon id="Path" fill="#90BAD2" points="427.973806 255.992691 377.594209 134.365735 463.597485 169.989414"></polygon>
            <path d="M436.996144,74.9574677 L463.612351,169.968354 L492.477089,158.012121 C479.787864,127.243256 460.582927,98.5035061 437.010184,75.007435 L436.996144,74.9574677 Z" id="Path" fill="#458378"></path>
            <path d="M492.477089,158.012121 C505.275746,188.753593 512.02698,222.672464 511.974974,255.97163 L463.612351,169.968354 L492.477089,158.012121 Z" id="Path" fill="#163132"></path>
            <polygon id="Path" fill="#ACE6EA" points="463.612351 341.974907 511.974672 255.97163 463.612351 169.968354 427.988672 255.97163"></polygon>
            <polygon id="Path" fill="#6EC9CC" points="377.609075 377.598586 427.988672 255.97163 463.612351 341.974907"></polygon>
            <path d="M512,255.967225 L463.637679,341.970502 L492.502417,353.926734 C505.286758,323.197238 512.028907,289.29516 511.974672,256.012375 L512,255.967225 Z" id="Path" fill="#10454F"></path>
            <path d="M492.502417,353.926734 C479.815119,384.714182 460.604538,413.47224 437.021609,436.981388 L463.637679,341.970502 L492.502417,353.926734 Z" id="Path" fill="#39727A"></path>
            <polygon id="Path" fill="#9BC3C8" points="342.010723 463.597595 437.021609 436.981388 463.637679 341.970502 377.634403 377.594181"></polygon>
            <polygon id="Path" fill="#84B4B2" points="256.007447 427.973778 377.634403 377.594181 342.010723 463.597595"></polygon>
            <path d="M437.04267,436.996254 L342.031784,463.612324 L353.988017,492.477199 C384.756881,479.787974 413.496632,460.583037 436.992703,437.010157 L437.04267,436.996254 Z" id="Path" fill="#23535A"></path>
            <path d="M353.988017,492.477199 C323.246545,505.275856 289.327674,512.026952 256.028508,511.974946 L342.031784,463.612324 L353.988017,492.477199 Z" id="Path" fill="#0C2629"></path>
            <polygon id="Path" fill="#0F5058" points="170.025231 463.612462 256.028508 511.974782 342.031784 463.612462 256.028508 427.988644"></polygon>
            <polygon id="Path" fill="#356977" points="134.401552 377.609185 256.028508 427.988644 170.025231 463.612462"></polygon>
            <path d="M256.032912,512.00011 L170.029636,463.637652 L158.073403,492.502527 C188.802899,505.286868 222.704977,512.029017 255.987763,511.974645 L256.032912,512.00011 Z" id="Path" fill="#246179"></path>
            <path d="M158.073403,492.502527 C127.285956,479.815092 98.5278979,460.604648 75.01875,437.021582 L170.029636,463.637652 L158.073403,492.502527 Z" id="Path" fill="#0E4643"></path>
            <polygon id="Path" fill="#21806F" points="48.4026801 342.010833 75.01875 437.021719 170.029636 463.637789 134.405957 377.634513"></polygon>
            <polygon id="Path" fill="#59BABC" points="84.0263595 256.007557 134.405957 377.634513 48.4026801 342.010833"></polygon>
            <path d="M75.0038836,437.042642 L48.3878138,342.031756 L19.5229387,353.987989 C32.2121633,384.756991 51.4171005,413.496604 74.9899809,436.992813 L75.0038836,437.042642 Z" id="Path" fill="#0D3638"></path>
            <path d="M19.5229387,353.987989 C6.72426768,323.246655 -0.0268694855,289.327784 0.0250818245,256.028618 L48.3878138,342.031756 L19.5229387,353.987989 Z" id="Path" fill="#439AA1"></path>
            <polygon id="Path" fill="#467D7C" points="48.3878138 170.025341 0.0254241494 256.028618 48.3878138 342.031894 84.0114932 256.028618"></polygon>
            <polygon id="Path" fill="#3393AA" points="134.39109 134.401662 84.0114932 256.028618 48.3878138 170.025341"></polygon>
            <path d="M-1.07010727e-14,256.032885 L48.3623483,170.029608 L19.4976109,158.073513 C6.71324183,188.80301 -0.0288516606,222.70495 0.0253828541,255.987735 L-1.07010727e-14,256.032885 Z" id="Path" fill="#94C0CE"></path>
            <path d="M19.4976109,158.073513 C32.1849084,127.286066 51.3954893,98.5278704 74.9785558,75.0188601 L48.3623483,170.029608 L19.4976109,158.073513 Z" id="Path" fill="#B3D6E2"></path>
            <polygon id="Path" fill="#E7FAFA" points="169.989442 48.4026526 74.9785558 75.0188601 48.3623483 170.029608 134.365625 134.405929"></polygon>
            <polygon id="Path" fill="#8ACADC" points="255.992718 84.0264697 134.365625 134.405929 169.989442 48.4026526"></polygon>
            <path d="M74.9574952,75.0039938 L169.968244,48.3877862 L158.012148,19.5230488 C127.243146,32.2121358 98.503396,51.4172106 75.0073249,74.9899534 L74.9574952,75.0039938 Z" id="Path" fill="#A9D8D1"></path>
            <path d="M158.012148,19.5230488 C188.753483,6.72439157 222.672354,-0.0268419552 255.97152,0.025163787 L169.968244,48.3877862 L158.012148,19.5230488 Z" id="Path" fill="#89EDF3"></path>
            <polygon id="Path" fill="#FFFFFF" points="341.974934 48.3877862 255.971658 0.0254654447 169.968381 48.3877862 255.971658 84.0116033"></polygon>
            <polygon id="Path" fill="#DEFDFF" points="377.598614 134.391063 255.971658 84.0116033 341.974934 48.3877862"></polygon>
            <path d="M255.967253,0 L341.970392,48.3624584 L353.926624,19.4975833 C323.197128,6.71324183 289.29505,-0.02876907 256.012402,0.0254654447 L255.967253,0 Z" id="Path" fill="#B8EAF1"></path>
            <path d="M353.926624,19.4975833 C384.714072,32.1850185 413.47213,51.3955994 436.981278,74.9785283 L341.970392,48.3624584 L353.926624,19.4975833 Z" id="Path" fill="#9FCFF0"></path>
        </g>
    </g>
</svg>