<svg xmlns="http://www.w3.org/2000/svg" viewBox="0 0 631 300">
  <style>path { fill: #000; } @media (prefers-color-scheme: dark) { path { fill: #fff; } }</style>
  <path d="M16.879 26.32v-6.908h3.851v.924h-2.992v5.983ZM16.879 52.32V38.3h.86v14.02ZM16.879 78.32V64.3h.86v14.02ZM16.879 104.32V90.3h.86v14.02ZM16.879 130.32V116.3h.86v14.02ZM16.879 156.32V142.3h.86v14.02ZM16.879 182.32V168.3h.86v14.02ZM16.879 208.32V194.3h.86v14.02ZM16.879 234.32V220.3h.86v14.02ZM16.879 260.32V246.3h.86v14.02ZM16.879 280.336V272.3h.86v7.111h2.991v.924ZM27.893 280.336v-.924h6.837v.924ZM41.893 280.336v-.924h6.837v.924ZM55.893 280.336v-.924h6.837v.924ZM69.893 280.336v-.924h6.837v.924ZM83.893 280.336v-.924h6.837v.924ZM97.893 280.336v-.924h6.837v.924ZM111.893 280.336v-.924h6.837v.924ZM125.893 280.336v-.924h6.837v.924ZM139.893 280.336v-.924h6.837v.924ZM153.893 280.336v-.924h6.837v.924ZM167.893 280.336v-.924h6.837v.924ZM181.893 280.336v-.924h6.837v.924ZM195.893 280.336v-.924h6.837v.924ZM209.893 280.336v-.924h6.837v.924ZM223.893 280.336v-.924h6.837v.924ZM237.893 280.336v-.924h6.837v.924ZM251.893 280.336v-.924h6.837v.924ZM265.893 280.336v-.924h6.837v.924ZM279.893 280.336v-.924h6.837v.924ZM293.893 280.336v-.924h2.986v-7.111h.86v8.035ZM471.879 280.336V272.3h.86v7.111h2.991v.924ZM482.893 280.336v-.924h6.837v.924ZM496.893 280.336v-.924h6.837v.924ZM510.893 280.336v-.924h6.837v.924ZM524.893 280.336v-.924h6.837v.924ZM538.893 280.336v-.924h6.837v.924ZM552.893 280.336v-.924h6.837v.924ZM566.893 280.336v-.924h6.837v.924ZM580.893 280.336v-.924h6.837v.924ZM594.893 280.336v-.924h6.837v.924ZM608.893 280.336v-.924h2.986v-7.111h.86v8.035ZM106.08 261.981h4.452v.913h-1.68v6.193h1.68V270h-4.452v-.913h1.68v-6.193h-1.68ZM117.645 266.272V270h-.994v-3.728q0-.81-.284-1.192-.285-.381-.892-.381-.693 0-1.066.491-.373.492-.373 1.41v3.4h-.989v-6.016h.989v.903q.263-.516.714-.782t1.069-.266q.918 0 1.372.605.454.604.454 1.828M120.697 264.006h2.53v5.226h1.96V270h-4.909v-.768h1.96v-4.458h-1.54Zm1.542-2.337h.988v1.247h-.988ZM129.298 262.276v1.708h2.245v.768h-2.245v3.266q0 .666.252.93.253.262.881.262h1.112v.79h-1.209q-1.111 0-1.568-.446-.456-.446-.456-1.536v-3.266h-1.606v-.768h1.606v-1.708ZM134.697 264.006h2.53v5.226h1.96V270h-4.909v-.768h1.96v-4.458h-1.54Zm1.542-2.337h.988v1.247h-.988ZM143.77 266.976h-.327q-.865 0-1.303.304-.437.303-.437.905 0 .542.327.843.328.3.908.3.816 0 1.284-.566.467-.567.472-1.566v-.22Zm1.918-.408V270h-.994v-.892q-.317.538-.797.793t-1.168.255q-.919 0-1.467-.519-.548-.518-.548-1.388 0-1.004.674-1.525t1.98-.521h1.326v-.156q-.005-.72-.365-1.045t-1.15-.325q-.504 0-1.02.145-.515.145-1.004.425v-.989q.548-.21 1.05-.314t.975-.105q.746 0 1.275.22.53.22.857.661.204.269.29.664.086.394.086 1.184M150.862 267.825q0 .666.244 1.004.245.338.723.338h1.154V270h-1.251q-.886 0-1.372-.567-.486-.566-.486-1.608v-5.441h-1.585v-.774h2.573ZM166.436 262.255v1.101q-.495-.317-.991-.478-.497-.161-1.002-.161-.768 0-1.214.357t-.446.964q0 .532.293.811.293.28 1.093.467l.57.13q1.127.262 1.643.826.515.564.515 1.537 0 1.144-.709 1.745t-2.062.602q-.564 0-1.133-.121-.57-.12-1.144-.363v-1.154q.617.392 1.168.574.55.183 1.109.183.822 0 1.278-.368t.457-1.029q0-.601-.314-.918-.315-.317-1.093-.489l-.58-.134q-1.118-.253-1.623-.763t-.504-1.37q0-1.074.722-1.72.722-.648 1.92-.648.462 0 .972.105.51.104 1.075.314M171.298 262.276v1.708h2.245v.768h-2.245v3.266q0 .666.252.93.253.262.881.262h1.112v.79h-1.209q-1.111 0-1.568-.446-.456-.446-.456-1.536v-3.266h-1.606v-.768h1.606v-1.708ZM178.77 266.976h-.327q-.865 0-1.303.304-.437.303-.437.905 0 .542.327.843.328.3.908.3.816 0 1.284-.566.467-.567.472-1.566v-.22Zm1.918-.408V270h-.994v-.892q-.317.538-.797.793t-1.168.255q-.919 0-1.467-.519-.548-.518-.548-1.388 0-1.004.674-1.525t1.98-.521h1.326v-.156q-.005-.72-.365-1.045t-1.15-.325q-.504 0-1.02.145-.515.145-1.004.425v-.989q.548-.21 1.05-.314t.975-.105q.746 0 1.275.22.53.22.857.661.204.269.29.664.086.394.086 1.184M185.298 262.276v1.708h2.245v.768h-2.245v3.266q0 .666.252.93.253.262.881.262h1.112v.79h-1.209q-1.111 0-1.568-.446-.456-.446-.456-1.536v-3.266h-1.606v-.768h1.606v-1.708ZM195.016 266.498v.483h-4.281v.033q-.043 1.23.47 1.767t1.447.537q.473 0 .989-.15.515-.15 1.1-.457v.983q-.563.23-1.087.346t-1.012.116q-1.402 0-2.192-.84-.79-.841-.79-2.318 0-1.44.774-2.3t2.063-.859q1.149 0 1.812.78.664.778.707 1.879m-.989-.29q-.064-.623-.454-1.077-.389-.454-1.12-.454-.714 0-1.176.473t-.505 1.063ZM201.226 264.194v.967q-.424-.247-.854-.371-.43-.123-.875-.123-.672 0-1.002.217-.33.218-.33.663 0 .403.247.602t1.23.387l.397.075q.736.14 1.115.558.378.42.378 1.09 0 .892-.634 1.395-.633.502-1.761.502-.446 0-.935-.094t-1.058-.282v-1.02q.553.284 1.058.426t.956.143q.655 0 1.015-.266t.36-.744q0-.688-1.316-.95l-.043-.012-.37-.075q-.854-.166-1.246-.561t-.392-1.077q0-.865.585-1.335t1.67-.47q.484 0 .93.089.445.089.875.266M498.251 261.981h4.722v.913h-3.631v2.148h3.292v.914h-3.292V270h-1.09ZM505.697 264.006h2.53v5.226h1.96V270h-4.909v-.768h1.96v-4.458h-1.54Zm1.542-2.337h.988v1.247h-.988ZM516.645 266.272V270h-.994v-3.728q0-.81-.284-1.192-.285-.381-.892-.381-.693 0-1.066.491-.373.492-.373 1.41v3.4h-.989v-6.016h.989v.903q.263-.516.714-.782t1.069-.266q.918 0 1.372.605.454.604.454 1.828M521.77 266.976h-.327q-.865 0-1.303.304-.437.303-.437.905 0 .542.327.843.328.3.908.3.816 0 1.284-.566.467-.567.472-1.566v-.22Zm1.918-.408V270h-.994v-.892q-.317.538-.797.793t-1.168.255q-.919 0-1.467-.519-.548-.518-.548-1.388 0-1.004.674-1.525t1.98-.521h1.326v-.156q-.005-.72-.365-1.045t-1.15-.325q-.504 0-1.02.145-.515.145-1.004.425v-.989q.548-.21 1.05-.314t.975-.105q.746 0 1.275.22.53.22.857.661.204.269.29.664.086.394.086 1.184M528.862 267.825q0 .666.244 1.004.245.338.723.338h1.154V270h-1.251q-.886 0-1.372-.567-.486-.566-.486-1.608v-5.441h-1.585v-.774h2.573ZM544.436 262.255v1.101q-.495-.317-.991-.478-.497-.161-1.002-.161-.768 0-1.214.357t-.446.964q0 .532.293.811.293.28 1.093.467l.57.13q1.127.262 1.643.826.515.564.515 1.537 0 1.144-.709 1.745t-2.062.602q-.564 0-1.133-.121-.57-.12-1.144-.363v-1.154q.617.392 1.168.574.55.183 1.109.183.822 0 1.278-.368t.457-1.029q0-.601-.314-.918-.315-.317-1.093-.489l-.58-.134q-1.118-.253-1.623-.763t-.504-1.37q0-1.074.722-1.72.722-.648 1.92-.648.462 0 .972.105.51.104 1.075.314M549.298 262.276v1.708h2.245v.768h-2.245v3.266q0 .666.252.93.253.262.881.262h1.112v.79h-1.209q-1.111 0-1.568-.446-.456-.446-.456-1.536v-3.266h-1.606v-.768h1.606v-1.708ZM556.77 266.976h-.327q-.865 0-1.303.304-.437.303-.437.905 0 .542.327.843.328.3.908.3.816 0 1.284-.566.467-.567.472-1.566v-.22Zm1.918-.408V270h-.994v-.892q-.317.538-.797.793t-1.168.255q-.919 0-1.467-.519-.548-.518-.548-1.388 0-1.004.674-1.525t1.98-.521h1.326v-.156q-.005-.72-.365-1.045t-1.15-.325q-.504 0-1.02.145-.515.145-1.004.425v-.989q.548-.21 1.05-.314t.975-.105q.746 0 1.275.22.53.22.857.661.204.269.29.664.086.394.086 1.184M563.298 262.276v1.708h2.245v.768h-2.245v3.266q0 .666.252.93.253.262.881.262h1.112v.79h-1.209q-1.111 0-1.568-.446-.456-.446-.456-1.536v-3.266h-1.606v-.768h1.606v-1.708ZM573.016 266.498v.483h-4.281v.033q-.043 1.23.47 1.767t1.447.537q.473 0 .989-.15.515-.15 1.1-.457v.983q-.563.23-1.087.346t-1.012.116q-1.402 0-2.192-.84-.79-.841-.79-2.318 0-1.44.774-2.3t2.063-.859q1.149 0 1.812.78.664.778.707 1.879m-.989-.29q-.064-.623-.454-1.077-.389-.454-1.12-.454-.714 0-1.176.473t-.505 1.063ZM579.226 264.194v.967q-.424-.247-.854-.371-.43-.123-.875-.123-.672 0-1.002.217-.33.218-.33.663 0 .403.247.602t1.23.387l.397.075q.736.14 1.115.558.378.42.378 1.09 0 .892-.634 1.395-.633.502-1.761.502-.446 0-.935-.094t-1.058-.282v-1.02q.553.284 1.058.426t.956.143q.655 0 1.015-.266t.36-.744q0-.688-1.316-.95l-.043-.012-.37-.075q-.854-.166-1.246-.561t-.392-1.077q0-.865.585-1.335t1.67-.47q.484 0 .93.089.445.089.875.266M296.879 260.32V246.3h.86v14.02ZM471.879 260.32V246.3h.86v14.02ZM611.879 260.32V246.3h.86v14.02ZM86.879 241.336V233.3h.86v7.111h2.991v.924ZM90.893 241.336v-.924h6.837v.924ZM97.893 241.336v-.924h6.837v.924ZM104.893 241.336v-.924h6.837v.924ZM111.893 241.336v-.924h6.837v.924ZM118.893 241.336v-.924h6.837v.924ZM125.893 241.336v-.924h6.837v.924ZM132.893 241.336v-.924h6.837v.924ZM139.893 241.336v-.924h6.837v.924ZM146.893 241.336v-.924h6.837v.924ZM153.893 241.336v-.924h6.837v.924ZM160.893 241.336v-.924h6.837v.924ZM167.893 241.336v-.924h6.837v.924ZM174.893 241.336v-.924h6.837v.924ZM181.893 241.336v-.924h6.837v.924ZM188.893 241.336v-.924h6.837v.924ZM195.893 241.336v-.924h6.837v.924ZM202.893 241.336v-.924h6.837v.924ZM209.893 241.336v-.924h6.837v.924ZM216.893 241.336v-.924h6.837v.924ZM223.893 241.336v-.924h6.837v.924ZM230.893 241.336v-.924h6.837v.924ZM237.893 241.336v-.924h6.837v.924ZM244.893 241.336v-.924h6.837v.924ZM251.893 241.336v-.924h6.837v.924ZM258.893 241.336v-.924h6.837v.924ZM265.893 241.336v-.924h6.837v.924ZM272.893 241.336v-.924h6.837v.924ZM279.893 241.336v-.924h6.837v.924ZM286.893 241.336v-.924h6.837v.924ZM293.893 241.336v-.924h6.837v.924ZM300.893 241.336v-.924h6.837v.924ZM307.893 241.336v-.924h6.837v.924ZM314.893 241.336v-.924h6.837v.924ZM321.893 241.336v-.924h6.837v.924ZM328.893 241.336v-.924h6.837v.924ZM335.893 241.336v-.924h6.837v.924ZM342.893 241.336v-.924h6.837v.924ZM349.893 241.336v-.924h6.837v.924ZM356.893 241.336v-.924h6.837v.924ZM363.893 241.336v-.924h6.837v.924ZM370.893 241.336v-.924h6.837v.924ZM377.893 241.336v-.924h6.837v.924ZM384.893 241.336v-.924h2.986v-7.111h.86v8.035Z"/><path d="M86.879 234.32V220.3h.86v14.02ZM296.879 234.32V220.3h.86v14.02ZM387.879 234.32V220.3h.86v14.02ZM471.879 234.32V220.3h.86v14.02ZM611.879 234.32V220.3h.86v14.02ZM84.032 218.419l3.277-6.553 3.281 6.553Z"/><path d="M387.879 221.32V207.3h.86v14.02ZM30.879 202.336V194.3h.86v7.111h2.991v.924ZM34.893 202.336v-.924h6.837v.924ZM41.893 202.336v-.924h6.837v.924ZM48.893 202.336v-.924h6.837v.924ZM55.893 202.336v-.924h6.837v.924ZM62.893 202.336v-.924h6.837v.924ZM69.893 202.336v-.924h6.837v.924ZM76.893 202.336v-.924h6.837v.924ZM83.893 202.336v-.924h6.837v.924ZM90.893 202.336v-.924h6.837v.924ZM97.893 202.336v-.924h6.837v.924ZM104.893 202.336v-.924h6.837v.924ZM111.893 202.336v-.924h6.837v.924ZM118.893 202.336v-.924h6.837v.924ZM125.893 202.336v-.924h6.837v.924ZM132.893 202.336v-.924h6.837v.924ZM139.893 202.336v-.924h2.986v-7.111h.86v8.035ZM296.879 208.32V194.3h.86v14.02Z"/><path d="M387.879 208.32V194.3h.86v14.02ZM471.879 208.32V194.3h.86v14.02ZM485.879 202.336V194.3h.86v7.111h2.991v.924ZM489.893 202.336v-.924h6.837v.924ZM496.893 202.336v-.924h6.837v.924ZM503.893 202.336v-.924h6.837v.924ZM510.893 202.336v-.924h6.837v.924ZM517.893 202.336v-.924h6.837v.924ZM524.893 202.336v-.924h6.837v.924ZM531.893 202.336v-.924h6.837v.924ZM538.893 202.336v-.924h6.837v.924ZM545.893 202.336v-.924h6.837v.924ZM552.893 202.336v-.924h6.837v.924ZM559.893 202.336v-.924h6.837v.924ZM566.893 202.336v-.924h6.837v.924ZM573.893 202.336v-.924h6.837v.924ZM580.893 202.336v-.924h6.837v.924ZM587.893 202.336v-.924h6.837v.924ZM594.893 202.336v-.924h2.986v-7.111h.86v8.035ZM611.879 208.32V194.3h.86v14.02ZM30.879 195.32V181.3h.86v14.02ZM62.204 187.225q-.317-.247-.645-.36t-.72-.113q-.923 0-1.412.58t-.489 1.676V192h-.994v-6.016h.994v1.177q.247-.64.76-.98.513-.342 1.217-.342.365 0 .682.092.317.091.607.284ZM69.016 188.498v.483h-4.281v.033q-.043 1.23.47 1.767t1.447.537q.473 0 .989-.15.515-.15 1.1-.457v.983q-.563.23-1.087.346t-1.012.116q-1.402 0-2.192-.84-.79-.841-.79-2.318 0-1.44.774-2.3t2.063-.859q1.149 0 1.812.78.664.778.707 1.879m-.989-.29q-.064-.623-.454-1.077-.389-.454-1.12-.454-.714 0-1.176.473t-.505 1.063ZM73.298 184.276v1.708h2.245v.768h-2.245v3.266q0 .666.252.93.253.262.881.262h1.112v.79h-1.209q-1.111 0-1.568-.446-.456-.446-.456-1.536v-3.266h-1.606v-.768h1.606v-1.708ZM83.204 187.225q-.317-.247-.645-.36t-.72-.113q-.923 0-1.412.58t-.489 1.676V192h-.994v-6.016h.994v1.177q.247-.64.76-.98.513-.342 1.217-.342.365 0 .682.092.317.091.607.284ZM88.608 190.066q-.247.629-.628 1.655-.532 1.418-.714 1.73-.247.418-.618.628-.37.21-.865.21h-.795v-.828h.586q.435 0 .682-.253.247-.252.628-1.305l-2.325-5.919h1.047l1.783 4.705 1.757-4.705h1.047ZM94.77 188.976h-.327q-.865 0-1.303.304-.437.303-.437.905 0 .542.327.843.328.3.908.3.816 0 1.284-.566.467-.567.472-1.566v-.22Zm1.918-.408V192h-.994v-.892q-.317.538-.797.793t-1.168.255q-.919 0-1.467-.519-.548-.518-.548-1.388 0-1.004.674-1.525t1.98-.521h1.326v-.156q-.005-.72-.365-1.045t-1.15-.325q-.504 0-1.02.145-.515.145-1.004.425v-.989q.548-.21 1.05-.314t.975-.105q.746 0 1.275.22.53.22.857.661.204.269.29.664.086.394.086 1.184M102.93 188.998q0-1.15-.365-1.735t-1.08-.586q-.719 0-1.09.588-.37.589-.37 1.733 0 1.138.37 1.73.371.59 1.09.59.715 0 1.08-.586.366-.585.366-1.734m-2.905-2.246q.236-.44.652-.676t.965-.237q1.085 0 1.708.836.623.835.623 2.301 0 1.488-.626 2.334t-1.716.846q-.537 0-.948-.234t-.658-.68V192h-.988v-8.357h.988ZM108.862 189.825q0 .666.244 1.004.245.338.723.338h1.154V192h-1.251q-.886 0-1.372-.567-.486-.566-.486-1.608v-5.441h-1.585v-.774h2.573ZM118.016 188.498v.483h-4.281v.033q-.043 1.23.47 1.767t1.447.537q.473 0 .989-.15.515-.15 1.1-.457v.983q-.563.23-1.087.346t-1.012.116q-1.402 0-2.192-.84-.79-.841-.79-2.318 0-1.44.774-2.3t2.063-.859q1.149 0 1.812.78.664.778.707 1.879m-.989-.29q-.064-.623-.454-1.077-.389-.454-1.12-.454-.714 0-1.176.473t-.505 1.063ZM142.879 195.32V181.3h.86v14.02ZM146.893 189.336v-.924h6.837v.924ZM153.893 189.336v-.924h6.837v.924ZM160.893 189.336v-.924h6.837v.924ZM167.893 189.336v-.924h6.837v.924ZM174.893 189.336v-.924h6.837v.924ZM181.893 189.336v-.924h6.837v.924ZM188.893 189.336v-.924h6.837v.924ZM195.893 189.336v-.924h6.837v.924ZM202.893 189.336v-.924h6.837v.924ZM209.893 189.336v-.924h6.837v.924ZM216.893 189.336v-.924h6.837v.924ZM223.893 189.336v-.924h2.986v-7.111h.86v8.035Z"/><path d="M387.879 195.32V181.3h.86v14.02ZM464.879 189.336V181.3h.86v7.111h2.991v.924ZM468.893 189.336v-.924h6.837v.924ZM476.032 192.419v-6.553l6.558 3.277ZM485.879 195.32V181.3h.86v14.02ZM516.699 191.694q-.398.23-.82.346t-.861.116q-1.397 0-2.184-.838t-.787-2.32.787-2.32q.787-.839 2.184-.839.435 0 .848.113.414.113.833.35v1.036q-.392-.35-.787-.505t-.894-.156q-.93 0-1.43.602-.499.601-.499 1.719 0 1.111.503 1.716.502.604 1.426.604.515 0 .923-.159.409-.158.758-.491ZM521.77 188.976h-.327q-.865 0-1.303.304-.437.303-.437.905 0 .542.327.843.328.3.908.3.816 0 1.284-.566.467-.567.472-1.566v-.22Zm1.918-.408V192h-.994v-.892q-.317.538-.797.793t-1.168.255q-.919 0-1.467-.519-.548-.518-.548-1.388 0-1.004.674-1.525t1.98-.521h1.326v-.156q-.005-.72-.365-1.045t-1.15-.325q-.504 0-1.02.145-.515.145-1.004.425v-.989q.548-.21 1.05-.314t.975-.105q.746 0 1.275.22.53.22.857.661.204.269.29.664.086.394.086 1.184M530.645 188.272V192h-.994v-3.728q0-.81-.284-1.192-.285-.381-.892-.381-.693 0-1.066.491-.373.492-.373 1.41v3.4h-.989v-6.016h.989v.903q.263-.516.714-.782t1.069-.266q.918 0 1.372.605.454.604.454 1.828M537.699 191.694q-.398.23-.82.346t-.861.116q-1.397 0-2.184-.838t-.787-2.32.787-2.32q.787-.839 2.184-.839.435 0 .848.113.414.113.833.35v1.036q-.392-.35-.787-.505t-.894-.156q-.93 0-1.43.602-.499.601-.499 1.719 0 1.111.503 1.716.502.604 1.426.604.515 0 .923-.159.409-.158.758-.491ZM545.016 188.498v.483h-4.281v.033q-.043 1.23.47 1.767t1.447.537q.473 0 .989-.15.515-.15 1.1-.457v.983q-.563.23-1.087.346t-1.012.116q-1.402 0-2.192-.84-.79-.841-.79-2.318 0-1.44.774-2.3t2.063-.859q1.149 0 1.812.78.664.778.707 1.879m-.989-.29q-.064-.623-.454-1.077-.389-.454-1.12-.454-.714 0-1.176.473t-.505 1.063ZM549.862 189.825q0 .666.244 1.004.245.338.723.338h1.154V192h-1.251q-.886 0-1.372-.567-.486-.566-.486-1.608v-5.441h-1.585v-.774h2.573ZM556.862 189.825q0 .666.244 1.004.245.338.723.338h1.154V192h-1.251q-.886 0-1.372-.567-.486-.566-.486-1.608v-5.441h-1.585v-.774h2.573ZM566.016 188.498v.483h-4.281v.033q-.043 1.23.47 1.767t1.447.537q.473 0 .989-.15.515-.15 1.1-.457v.983q-.563.23-1.087.346t-1.012.116q-1.402 0-2.192-.84-.79-.841-.79-2.318 0-1.44.774-2.3t2.063-.859q1.149 0 1.812.78.664.778.707 1.879m-.989-.29q-.064-.623-.454-1.077-.389-.454-1.12-.454-.714 0-1.176.473t-.505 1.063ZM571.608 186.752v-3.11h.989V192h-.989v-.757q-.247.445-.658.68-.41.233-.948.233-1.09 0-1.716-.846t-.625-2.334q0-1.466.628-2.301t1.713-.836q.543 0 .956.234.414.234.65.68m-2.905 2.246q0 1.149.365 1.734.365.586 1.08.586.714 0 1.087-.59.373-.592.373-1.73 0-1.144-.373-1.733-.373-.588-1.088-.588-.714 0-1.08.586-.364.585-.364 1.735M597.879 195.32V181.3h.86v14.02ZM30.879 182.32v-6.908h3.851v.924h-2.992v5.983ZM34.893 176.336v-.924h6.837v.924ZM41.893 176.336v-.924h6.837v.924ZM48.893 176.336v-.924h6.837v.924ZM55.893 176.336v-.924h6.837v.924ZM62.893 176.336v-.924h6.837v.924ZM69.893 176.336v-.924h6.837v.924ZM76.893 176.336v-.924h6.837v.924ZM83.893 176.336v-.924h6.837v.924ZM90.893 176.336v-.924h6.837v.924ZM97.893 176.336v-.924h6.837v.924ZM104.893 176.336v-.924h6.837v.924ZM111.893 176.336v-.924h6.837v.924ZM118.893 176.336v-.924h6.837v.924ZM125.893 176.336v-.924h6.837v.924ZM132.893 176.336v-.924h6.837v.924ZM142.879 182.32v-5.984h-2.986v-.924h3.845v6.907ZM226.879 182.32V168.3h.86v14.02ZM296.879 182.32V168.3h.86v14.02Z"/><path d="M387.879 182.32V168.3h.86v14.02ZM464.879 182.32V168.3h.86v14.02ZM471.879 182.32V168.3h.86v14.02ZM485.879 182.32v-6.908h3.851v.924h-2.992v5.983ZM489.893 176.336v-.924h6.837v.924ZM496.893 176.336v-.924h6.837v.924ZM503.893 176.336v-.924h6.837v.924ZM510.893 176.336v-.924h6.837v.924ZM517.893 176.336v-.924h6.837v.924ZM524.893 176.336v-.924h6.837v.924ZM531.893 176.336v-.924h6.837v.924ZM538.893 176.336v-.924h6.837v.924ZM545.893 176.336v-.924h6.837v.924ZM552.893 176.336v-.924h6.837v.924ZM559.893 176.336v-.924h6.837v.924ZM566.893 176.336v-.924h6.837v.924ZM573.893 176.336v-.924h6.837v.924ZM580.893 176.336v-.924h6.837v.924ZM587.893 176.336v-.924h6.837v.924ZM597.879 182.32v-5.984h-2.986v-.924h3.845v6.907ZM611.879 182.32V168.3h.86v14.02ZM226.879 169.32V155.3h.86v14.02Z"/><path d="M387.879 169.32V155.3h.86v14.02ZM464.879 169.32V155.3h.86v14.02ZM224.032 153.419l3.277-6.553 3.281 6.553ZM296.879 156.32V142.3h.86v14.02Z"/><path d="M387.879 156.32V142.3h.86v14.02ZM464.879 156.32V142.3h.86v14.02ZM471.879 156.32V142.3h.86v14.02ZM611.879 156.32V142.3h.86v14.02ZM30.879 137.336V129.3h.86v7.111h2.991v.924ZM34.893 137.336v-.924h6.837v.924ZM41.893 137.336v-.924h6.837v.924ZM48.893 137.336v-.924h6.837v.924ZM55.893 137.336v-.924h6.837v.924ZM62.893 137.336v-.924h6.837v.924ZM69.893 137.336v-.924h6.837v.924ZM76.893 137.336v-.924h6.837v.924ZM83.893 137.336v-.924h6.837v.924ZM90.893 137.336v-.924h6.837v.924ZM97.893 137.336v-.924h6.837v.924ZM104.893 137.336v-.924h6.837v.924ZM111.893 137.336v-.924h6.837v.924ZM118.893 137.336v-.924h6.837v.924ZM125.893 137.336v-.924h6.837v.924ZM132.893 137.336v-.924h6.837v.924ZM139.893 137.336v-.924h2.986v-7.111h.86v8.035ZM170.879 137.336V129.3h.86v7.111h2.991v.924ZM174.893 137.336v-.924h6.837v.924ZM181.893 137.336v-.924h6.837v.924ZM188.893 137.336v-.924h6.837v.924ZM195.893 137.336v-.924h6.837v.924ZM202.893 137.336v-.924h6.837v.924ZM209.893 137.336v-.924h6.837v.924ZM216.893 137.336v-.924h6.837v.924ZM223.893 137.336v-.924h6.837v.924ZM230.893 137.336v-.924h6.837v.924ZM237.893 137.336v-.924h6.837v.924ZM244.893 137.336v-.924h6.837v.924ZM251.893 137.336v-.924h6.837v.924ZM258.893 137.336v-.924h6.837v.924ZM265.893 137.336v-.924h6.837v.924ZM272.893 137.336v-.924h6.837v.924ZM279.893 137.336v-.924h2.986v-7.111h.86v8.035ZM331.879 137.336V129.3h.86v7.111h2.991v.924ZM335.893 137.336v-.924h6.837v.924ZM342.893 137.336v-.924h6.837v.924ZM349.893 137.336v-.924h6.837v.924ZM356.893 137.336v-.924h6.837v.924ZM363.893 137.336v-.924h6.837v.924ZM370.893 137.336v-.924h6.837v.924ZM377.893 137.336v-.924h6.837v.924ZM384.893 137.336v-.924h6.837v.924ZM391.893 137.336v-.924h6.837v.924ZM398.893 137.336v-.924h6.837v.924ZM405.893 137.336v-.924h6.837v.924ZM412.893 137.336v-.924h6.837v.924ZM419.893 137.336v-.924h6.837v.924ZM426.893 137.336v-.924h6.837v.924ZM433.893 137.336v-.924h6.837v.924ZM440.893 137.336v-.924h2.986v-7.111h.86v8.035Z"/><path d="M464.879 143.32V129.3h.86v14.02ZM485.879 137.336V129.3h.86v7.111h2.991v.924ZM489.893 137.336v-.924h6.837v.924ZM496.893 137.336v-.924h6.837v.924ZM503.893 137.336v-.924h6.837v.924ZM510.893 137.336v-.924h6.837v.924ZM517.893 137.336v-.924h6.837v.924ZM524.893 137.336v-.924h6.837v.924ZM531.893 137.336v-.924h6.837v.924ZM538.893 137.336v-.924h6.837v.924ZM545.893 137.336v-.924h6.837v.924ZM552.893 137.336v-.924h6.837v.924ZM559.893 137.336v-.924h6.837v.924ZM566.893 137.336v-.924h6.837v.924ZM573.893 137.336v-.924h6.837v.924ZM580.893 137.336v-.924h6.837v.924ZM587.893 137.336v-.924h6.837v.924ZM594.893 137.336v-.924h2.986v-7.111h.86v8.035ZM30.879 130.32V116.3h.86v14.02ZM61.226 121.194v.967q-.424-.247-.854-.371-.43-.123-.875-.123-.672 0-1.002.217-.33.218-.33.663 0 .403.247.602t1.23.387l.397.075q.736.14 1.115.558.378.42.378 1.09 0 .892-.634 1.395-.633.502-1.761.502-.446 0-.935-.094t-1.058-.282v-1.02q.553.284 1.058.426t.956.143q.655 0 1.015-.266t.36-.744q0-.688-1.316-.95l-.043-.012-.37-.075q-.854-.166-1.246-.561t-.392-1.077q0-.865.585-1.335t1.67-.47q.484 0 .93.089.445.089.875.266M68.699 126.694q-.398.23-.82.346t-.861.116q-1.397 0-2.184-.838t-.787-2.32.787-2.32q.787-.839 2.184-.839.435 0 .848.113.414.113.833.35v1.036q-.392-.35-.787-.505t-.894-.156q-.93 0-1.43.602-.499.601-.499 1.719 0 1.111.503 1.716.502.604 1.426.604.515 0 .923-.159.409-.158.758-.491ZM75.645 123.272V127h-.994v-3.728q0-.81-.284-1.192-.285-.381-.892-.381-.693 0-1.066.491-.373.492-.373 1.41v3.4h-.989v-8.357h.989v3.244q.263-.516.714-.782t1.069-.266q.918 0 1.372.605.454.604.454 1.828M83.016 123.498v.483h-4.281v.033q-.043 1.23.47 1.767t1.447.537q.473 0 .989-.15.515-.15 1.1-.457v.983q-.563.23-1.087.346t-1.012.116q-1.402 0-2.192-.84-.79-.841-.79-2.318 0-1.44.774-2.3t2.063-.859q1.149 0 1.812.78.664.778.707 1.879m-.989-.29q-.064-.623-.454-1.077-.389-.454-1.12-.454-.714 0-1.176.473t-.505 1.063ZM88.608 121.752v-3.11h.989V127h-.989v-.757q-.247.445-.658.68-.41.233-.948.233-1.09 0-1.716-.846t-.625-2.334q0-1.466.628-2.301t1.713-.836q.543 0 .956.234.414.234.65.68m-2.905 2.246q0 1.149.365 1.734.365.586 1.08.586.714 0 1.087-.59.373-.592.373-1.73 0-1.144-.373-1.733-.373-.588-1.088-.588-.714 0-1.08.586-.364.585-.364 1.735M92.047 124.723v-3.728h.989v3.728q0 .81.287 1.192t.889.381q.698 0 1.069-.491.37-.492.37-1.41v-3.4h.994V127h-.994v-.902q-.263.52-.717.79-.454.268-1.06.268-.924 0-1.375-.604-.452-.605-.452-1.83M101.862 124.825q0 .666.244 1.004.245.338.723.338h1.154V127h-1.251q-.886 0-1.372-.567-.486-.566-.486-1.608v-5.441h-1.585v-.774h2.573ZM111.016 123.498v.483h-4.281v.033q-.043 1.23.47 1.767t1.447.537q.473 0 .989-.15.515-.15 1.1-.457v.983q-.563.23-1.087.346t-1.012.116q-1.402 0-2.192-.84-.79-.841-.79-2.318 0-1.44.774-2.3t2.063-.859q1.149 0 1.812.78.664.778.707 1.879m-.989-.29q-.064-.623-.454-1.077-.389-.454-1.12-.454-.714 0-1.176.473t-.505 1.063ZM116.608 121.752v-3.11h.989V127h-.989v-.757q-.247.445-.658.68-.41.233-.948.233-1.09 0-1.716-.846t-.625-2.334q0-1.466.628-2.301t1.713-.836q.543 0 .956.234.414.234.65.68m-2.905 2.246q0 1.149.365 1.734.365.586 1.08.586.714 0 1.087-.59.373-.592.373-1.73 0-1.144-.373-1.733-.373-.588-1.088-.588-.714 0-1.08.586-.364.585-.364 1.735M142.879 130.32V116.3h.86v14.02ZM146.893 124.336v-.924h6.837v.924ZM153.893 124.336v-.924h6.837v.924ZM161.032 127.419v-6.553l6.558 3.277ZM170.879 130.32V116.3h.86v14.02ZM199.77 123.976h-.327q-.865 0-1.303.304-.437.303-.437.905 0 .542.327.843.328.3.908.3.816 0 1.284-.566.467-.567.472-1.566v-.22Zm1.918-.408V127h-.994v-.892q-.317.538-.797.793t-1.168.255q-.919 0-1.467-.519-.548-.518-.548-1.388 0-1.004.674-1.525t1.98-.521h1.326v-.156q-.005-.72-.365-1.045t-1.15-.325q-.504 0-1.02.145-.515.145-1.004.425v-.989q.548-.21 1.05-.314t.975-.105q.746 0 1.275.22.53.22.857.661.204.269.29.664.086.394.086 1.184M203.537 120.984h1.026l1.746 5.05 1.75-5.05h1.026L206.948 127h-1.273ZM213.77 123.976h-.327q-.865 0-1.303.304-.437.303-.437.905 0 .542.327.843.328.3.908.3.816 0 1.284-.566.467-.567.472-1.566v-.22Zm1.918-.408V127h-.994v-.892q-.317.538-.797.793t-1.168.255q-.919 0-1.467-.519-.548-.518-.548-1.388 0-1.004.674-1.525t1.98-.521h1.326v-.156q-.005-.72-.365-1.045t-1.15-.325q-.504 0-1.02.145-.515.145-1.004.425v-.989q.548-.21 1.05-.314t.975-.105q.746 0 1.275.22.53.22.857.661.204.269.29.664.086.394.086 1.184M218.697 121.006h2.53v5.226h1.96V127h-4.909v-.768h1.96v-4.458h-1.54Zm1.542-2.337h.988v1.247h-.988ZM227.862 124.825q0 .666.244 1.004.245.338.723.338h1.154V127h-1.251q-.886 0-1.372-.567-.486-.566-.486-1.608v-5.441h-1.585v-.774h2.573ZM234.77 123.976h-.327q-.865 0-1.303.304-.437.303-.437.905 0 .542.327.843.328.3.908.3.816 0 1.284-.566.467-.567.472-1.566v-.22Zm1.918-.408V127h-.994v-.892q-.317.538-.797.793t-1.168.255q-.919 0-1.467-.519-.548-.518-.548-1.388 0-1.004.674-1.525t1.98-.521h1.326v-.156q-.005-.72-.365-1.045t-1.15-.325q-.504 0-1.02.145-.515.145-1.004.425v-.989q.548-.21 1.05-.314t.975-.105q.746 0 1.275.22.53.22.857.661.204.269.29.664.086.394.086 1.184M242.93 123.998q0-1.15-.365-1.735t-1.08-.586q-.719 0-1.09.588-.37.589-.37 1.733 0 1.138.37 1.73.371.59 1.09.59.715 0 1.08-.586.366-.585.366-1.734m-2.905-2.246q.236-.44.652-.676t.965-.237q1.085 0 1.708.836.623.835.623 2.301 0 1.488-.626 2.334t-1.716.846q-.537 0-.948-.234t-.658-.68V127h-.988v-8.357h.988ZM248.862 124.825q0 .666.244 1.004.245.338.723.338h1.154V127h-1.251q-.886 0-1.372-.567-.486-.566-.486-1.608v-5.441h-1.585v-.774h2.573ZM258.016 123.498v.483h-4.281v.033q-.043 1.23.47 1.767t1.447.537q.473 0 .989-.15.515-.15 1.1-.457v.983q-.563.23-1.087.346t-1.012.116q-1.402 0-2.192-.84-.79-.841-.79-2.318 0-1.44.774-2.3t2.063-.859q1.149 0 1.812.78.664.778.707 1.879m-.989-.29q-.064-.623-.454-1.077-.389-.454-1.12-.454-.714 0-1.176.473t-.505 1.063ZM282.879 130.32V116.3h.86v14.02ZM286.893 124.336v-.924h6.837v.924ZM297.738 124.336v5.983h-.86v-5.983h-2.985v-.924h2.986v-7.111h.86v7.111h2.991v.924ZM300.893 124.336v-.924h6.837v.924ZM307.893 124.336v-.924h6.837v.924ZM314.893 124.336v-.924h6.837v.924ZM322.032 127.419v-6.553l6.558 3.277ZM331.879 130.32V116.3h.86v14.02ZM363.016 123.498v.483h-4.281v.033q-.043 1.23.47 1.767t1.447.537q.473 0 .989-.15.515-.15 1.1-.457v.983q-.563.23-1.087.346t-1.012.116q-1.402 0-2.192-.84-.79-.841-.79-2.318 0-1.44.774-2.3t2.063-.859q1.149 0 1.812.78.664.778.707 1.879m-.989-.29q-.064-.623-.454-1.077-.389-.454-1.12-.454-.714 0-1.176.473t-.505 1.063ZM370.005 120.984l-2.154 2.88 2.363 3.136h-1.144l-1.761-2.412-1.757 2.412h-1.144l2.363-3.137-2.153-2.879h1.095l1.596 2.176 1.584-2.176ZM377.016 123.498v.483h-4.281v.033q-.043 1.23.47 1.767t1.447.537q.473 0 .989-.15.515-.15 1.1-.457v.983q-.563.23-1.087.346t-1.012.116q-1.402 0-2.192-.84-.79-.841-.79-2.318 0-1.44.774-2.3t2.063-.859q1.149 0 1.812.78.664.778.707 1.879m-.989-.29q-.064-.623-.454-1.077-.389-.454-1.12-.454-.714 0-1.176.473t-.505 1.063ZM383.699 126.694q-.398.23-.82.346t-.861.116q-1.397 0-2.184-.838t-.787-2.32.787-2.32q.787-.839 2.184-.839.435 0 .848.113.414.113.833.35v1.036q-.392-.35-.787-.505t-.894-.156q-.93 0-1.43.602-.499.601-.499 1.719 0 1.111.503 1.716.502.604 1.426.604.515 0 .923-.159.409-.158.758-.491ZM386.047 124.723v-3.728h.989v3.728q0 .81.287 1.192t.889.381q.698 0 1.069-.491.37-.492.37-1.41v-3.4h.994V127h-.994v-.902q-.263.52-.717.79-.454.268-1.06.268-.924 0-1.375-.604-.452-.605-.452-1.83M395.298 119.276v1.708h2.245v.768h-2.245v3.266q0 .666.252.93.253.262.881.262h1.112v.79h-1.209q-1.111 0-1.568-.446-.456-.446-.456-1.536v-3.266h-1.606v-.768h1.606v-1.708ZM400.697 121.006h2.53v5.226h1.96V127h-4.909v-.768h1.96v-4.458h-1.54Zm1.542-2.337h.988v1.247h-.988ZM411.645 123.272V127h-.994v-3.728q0-.81-.284-1.192-.285-.381-.892-.381-.693 0-1.066.491-.373.492-.373 1.41v3.4h-.989v-6.016h.989v.903q.263-.516.714-.782t1.069-.266q.918 0 1.372.605.454.604.454 1.828M417.608 123.944q0-1.112-.362-1.69-.363-.577-1.056-.577-.725 0-1.106.578-.381.577-.381 1.689t.384 1.694 1.114.583q.682 0 1.045-.585.362-.586.362-1.692m.989 2.67q0 1.353-.64 2.051-.639.698-1.88.698-.408 0-.853-.075-.446-.075-.892-.22v-.978q.526.247.956.366.43.118.79.118.8 0 1.165-.435t.365-1.38v-.715q-.236.505-.644.752t-.994.247q-1.053 0-1.68-.843-.63-.844-.63-2.256 0-1.418.63-2.261.627-.844 1.68-.844.58 0 .983.231t.655.715v-.78h.989ZM443.879 130.32V116.3h.86v14.02ZM447.893 124.336v-.924h6.837v.924ZM454.893 124.336v-.924h6.837v.924Z"/><path d="M465.738 124.336v5.983h-.86v-5.983h-2.985v-.924h2.986v-7.111h.86v7.111h2.991v.924ZM472.738 124.336v5.983h-.86v-5.983h-2.985v-.924h2.986v-7.111h.86v7.111h2.991v.924ZM476.032 127.419v-6.553l6.558 3.277ZM485.879 130.32V116.3h.86v14.02ZM516.699 126.694q-.398.23-.82.346t-.861.116q-1.397 0-2.184-.838t-.787-2.32.787-2.32q.787-.839 2.184-.839.435 0 .848.113.414.113.833.35v1.036q-.392-.35-.787-.505t-.894-.156q-.93 0-1.43.602-.499.601-.499 1.719 0 1.111.503 1.716.502.604 1.426.604.515 0 .923-.159.409-.158.758-.491ZM521.309 121.677q-.752 0-1.14.586-.386.585-.386 1.735 0 1.144.387 1.732t1.139.588q.757 0 1.144-.588t.386-1.732q0-1.15-.386-1.735-.387-.586-1.144-.586m0-.838q1.251 0 1.914.811.664.811.664 2.348 0 1.541-.66 2.35-.662.808-1.918.808-1.252 0-1.913-.809-.66-.808-.66-2.35 0-1.536.66-2.347.661-.81 1.913-.81M528.63 121.597q.183-.387.465-.572.282-.186.68-.186.725 0 1.023.562.298.56.298 2.113V127h-.902v-3.443q0-1.273-.142-1.582-.143-.308-.519-.308-.43 0-.588.33t-.158 1.56V127h-.903v-3.443q0-1.289-.153-1.59-.153-.3-.55-.3-.392 0-.546.33-.153.33-.153 1.56V127h-.897v-6.016h.897v.516q.178-.322.444-.491.265-.17.604-.17.408 0 .68.188.27.188.42.57M534.014 126.243v3.045h-.993v-8.304h.993v.768q.247-.445.658-.679t.948-.234q1.09 0 1.71.844.621.843.621 2.336 0 1.466-.623 2.302-.623.835-1.708.835-.548 0-.959-.234t-.647-.68m2.9-2.245q0-1.15-.362-1.735-.363-.586-1.077-.586-.72 0-1.09.588-.37.589-.37 1.733 0 1.138.37 1.73.37.59 1.09.59.714 0 1.077-.586.363-.585.363-1.734M542.862 124.825q0 .666.244 1.004.245.338.723.338h1.154V127h-1.251q-.886 0-1.372-.567-.486-.566-.486-1.608v-5.441h-1.585v-.774h2.573ZM552.016 123.498v.483h-4.281v.033q-.043 1.23.47 1.767t1.447.537q.473 0 .989-.15.515-.15 1.1-.457v.983q-.563.23-1.087.346t-1.012.116q-1.402 0-2.192-.84-.79-.841-.79-2.318 0-1.44.774-2.3t2.063-.859q1.149 0 1.812.78.664.778.707 1.879m-.989-.29q-.064-.623-.454-1.077-.389-.454-1.12-.454-.714 0-1.176.473t-.505 1.063ZM556.298 119.276v1.708h2.245v.768h-2.245v3.266q0 .666.252.93.253.262.881.262h1.112v.79h-1.209q-1.111 0-1.568-.446-.456-.446-.456-1.536v-3.266h-1.606v-.768h1.606v-1.708ZM566.016 123.498v.483h-4.281v.033q-.043 1.23.47 1.767t1.447.537q.473 0 .989-.15.515-.15 1.1-.457v.983q-.563.23-1.087.346t-1.012.116q-1.402 0-2.192-.84-.79-.841-.79-2.318 0-1.44.774-2.3t2.063-.859q1.149 0 1.812.78.664.778.707 1.879m-.989-.29q-.064-.623-.454-1.077-.389-.454-1.12-.454-.714 0-1.176.473t-.505 1.063ZM571.608 121.752v-3.11h.989V127h-.989v-.757q-.247.445-.658.68-.41.233-.948.233-1.09 0-1.716-.846t-.625-2.334q0-1.466.628-2.301t1.713-.836q.543 0 .956.234.414.234.65.68m-2.905 2.246q0 1.149.365 1.734.365.586 1.08.586.714 0 1.087-.59.373-.592.373-1.73 0-1.144-.373-1.733-.373-.588-1.088-.588-.714 0-1.08.586-.364.585-.364 1.735M597.879 130.32V116.3h.86v14.02ZM611.879 130.32V116.3h.86v14.02ZM30.879 117.32v-6.908h3.851v.924h-2.992v5.983ZM34.893 111.336v-.924h6.837v.924ZM41.893 111.336v-.924h6.837v.924ZM48.893 111.336v-.924h6.837v.924ZM55.893 111.336v-.924h6.837v.924ZM62.893 111.336v-.924h6.837v.924ZM69.893 111.336v-.924h6.837v.924ZM76.893 111.336v-.924h6.837v.924ZM83.893 111.336v-.924h6.837v.924ZM90.893 111.336v-.924h6.837v.924ZM97.893 111.336v-.924h6.837v.924ZM104.893 111.336v-.924h6.837v.924ZM111.893 111.336v-.924h6.837v.924ZM118.893 111.336v-.924h6.837v.924ZM125.893 111.336v-.924h6.837v.924ZM132.893 111.336v-.924h6.837v.924ZM142.879 117.32v-5.984h-2.986v-.924h3.845v6.907ZM170.879 117.32v-6.908h3.851v.924h-2.992v5.983ZM174.893 111.336v-.924h6.837v.924ZM181.893 111.336v-.924h6.837v.924ZM188.893 111.336v-.924h6.837v.924ZM195.893 111.336v-.924h6.837v.924ZM202.893 111.336v-.924h6.837v.924ZM209.893 111.336v-.924h6.837v.924ZM216.893 111.336v-.924h6.837v.924ZM223.893 111.336v-.924h6.837v.924ZM230.893 111.336v-.924h6.837v.924ZM237.893 111.336v-.924h6.837v.924ZM244.893 111.336v-.924h6.837v.924ZM251.893 111.336v-.924h6.837v.924ZM258.893 111.336v-.924h6.837v.924ZM265.893 111.336v-.924h6.837v.924ZM272.893 111.336v-.924h6.837v.924ZM282.879 117.32v-5.984h-2.986v-.924h3.845v6.907ZM331.879 117.32v-6.908h3.851v.924h-2.992v5.983ZM335.893 111.336v-.924h6.837v.924ZM342.893 111.336v-.924h6.837v.924ZM349.893 111.336v-.924h6.837v.924ZM356.893 111.336v-.924h6.837v.924ZM363.893 111.336v-.924h6.837v.924ZM370.893 111.336v-.924h6.837v.924ZM377.893 111.336v-.924h6.837v.924ZM384.893 111.336v-.924h6.837v.924ZM391.893 111.336v-.924h6.837v.924ZM398.893 111.336v-.924h6.837v.924ZM405.893 111.336v-.924h6.837v.924ZM412.893 111.336v-.924h6.837v.924ZM419.893 111.336v-.924h6.837v.924ZM426.893 111.336v-.924h6.837v.924ZM433.893 111.336v-.924h6.837v.924ZM443.879 117.32v-5.984h-2.986v-.924h3.845v6.907Z"/><path d="M464.879 117.32V103.3h.86v14.02ZM485.879 117.32v-6.908h3.851v.924h-2.992v5.983ZM489.893 111.336v-.924h6.837v.924ZM496.893 111.336v-.924h6.837v.924ZM503.893 111.336v-.924h6.837v.924ZM510.893 111.336v-.924h6.837v.924ZM517.893 111.336v-.924h6.837v.924ZM524.893 111.336v-.924h6.837v.924ZM531.893 111.336v-.924h6.837v.924ZM538.893 111.336v-.924h6.837v.924ZM545.893 111.336v-.924h6.837v.924ZM552.893 111.336v-.924h6.837v.924ZM559.893 111.336v-.924h6.837v.924ZM566.893 111.336v-.924h6.837v.924ZM573.893 111.336v-.924h6.837v.924ZM580.893 111.336v-.924h6.837v.924ZM587.893 111.336v-.924h6.837v.924ZM597.879 117.32v-5.984h-2.986v-.924h3.845v6.907ZM87.309 101.419l-3.277-6.553h6.558ZM227.309 101.419l-3.277-6.553h6.558ZM296.879 104.32V90.3h.86v14.02Z"/><path d="M464.879 104.32V90.3h.86v14.02ZM471.879 104.32V90.3h.86v14.02ZM611.879 104.32V90.3h.86v14.02ZM86.879 91.32V77.3h.86v14.02ZM226.879 91.32V77.3h.86v14.02Z"/><path d="M464.879 91.32V77.3h.86v14.02ZM30.879 72.336V64.3h.86v7.111h2.991v.924ZM34.893 72.336v-.924h6.837v.924ZM41.893 72.336v-.924h6.837v.924ZM48.893 72.336v-.924h6.837v.924ZM55.893 72.336v-.924h6.837v.924ZM62.893 72.336v-.924h6.837v.924ZM69.893 72.336v-.924h6.837v.924ZM76.893 72.336v-.924h6.837v.924ZM83.893 72.336v-.924h6.837v.924ZM90.893 72.336v-.924h6.837v.924ZM97.893 72.336v-.924h6.837v.924ZM104.893 72.336v-.924h6.837v.924ZM111.893 72.336v-.924h6.837v.924ZM118.893 72.336v-.924h6.837v.924ZM125.893 72.336v-.924h6.837v.924ZM132.893 72.336v-.924h6.837v.924ZM139.893 72.336v-.924h2.986v-7.111h.86v8.035ZM226.879 78.32V64.3h.86v14.02ZM296.879 78.32V64.3h.86v14.02Z"/><path d="M464.879 78.32V64.3h.86v14.02ZM471.879 78.32V64.3h.86v14.02ZM485.879 72.336V64.3h.86v7.111h2.991v.924ZM489.893 72.336v-.924h6.837v.924ZM496.893 72.336v-.924h6.837v.924ZM503.893 72.336v-.924h6.837v.924ZM510.893 72.336v-.924h6.837v.924ZM517.893 72.336v-.924h6.837v.924ZM524.893 72.336v-.924h6.837v.924ZM531.893 72.336v-.924h6.837v.924ZM538.893 72.336v-.924h6.837v.924ZM545.893 72.336v-.924h6.837v.924ZM552.893 72.336v-.924h6.837v.924ZM559.893 72.336v-.924h6.837v.924ZM566.893 72.336v-.924h6.837v.924ZM573.893 72.336v-.924h6.837v.924ZM580.893 72.336v-.924h6.837v.924ZM587.893 72.336v-.924h6.837v.924ZM594.893 72.336v-.924h2.986v-7.111h.86v8.035ZM611.879 78.32V64.3h.86v14.02ZM30.879 65.32V51.3h.86v14.02ZM61.226 56.194v.967q-.424-.247-.854-.371-.43-.123-.875-.123-.672 0-1.002.217-.33.218-.33.663 0 .403.247.602t1.23.387l.397.075q.736.14 1.115.558.378.42.378 1.09 0 .892-.634 1.395-.633.502-1.761.502-.446 0-.935-.094t-1.058-.282v-1.02q.553.284 1.058.426t.956.143q.655 0 1.015-.266t.36-.744q0-.688-1.316-.95l-.043-.012-.37-.075q-.854-.166-1.246-.561t-.392-1.077q0-.865.585-1.335t1.67-.47q.484 0 .93.089.445.089.875.266M64.047 59.723v-3.728h.989v3.728q0 .81.287 1.192t.889.381q.698 0 1.069-.491.37-.492.37-1.41v-3.4h.994V62h-.994v-.902q-.263.52-.717.79-.454.268-1.06.268-.924 0-1.375-.604-.452-.605-.452-1.83M75.226 56.194v.967q-.424-.247-.854-.371-.43-.123-.875-.123-.672 0-1.002.217-.33.218-.33.663 0 .403.247.602t1.23.387l.397.075q.736.14 1.115.558.378.42.378 1.09 0 .892-.634 1.395-.633.502-1.761.502-.446 0-.935-.094t-1.058-.282v-1.02q.553.284 1.058.426t.956.143q.655 0 1.015-.266t.36-.744q0-.688-1.316-.95l-.043-.012-.37-.075q-.854-.166-1.246-.561t-.392-1.077q0-.865.585-1.335t1.67-.47q.484 0 .93.089.445.089.875.266M79.014 61.243v3.045h-.993v-8.304h.993v.768q.247-.445.658-.679t.948-.234q1.09 0 1.71.844.621.843.621 2.336 0 1.466-.623 2.302-.623.835-1.708.835-.548 0-.959-.234t-.647-.68m2.9-2.245q0-1.15-.362-1.735-.363-.586-1.077-.586-.72 0-1.09.588-.37.589-.37 1.733 0 1.138.37 1.73.37.59 1.09.59.714 0 1.077-.586.363-.585.363-1.734M90.016 58.498v.483h-4.281v.033q-.043 1.23.47 1.767t1.447.537q.473 0 .989-.15.515-.15 1.1-.457v.983q-.563.23-1.087.346t-1.012.116q-1.402 0-2.192-.84-.79-.841-.79-2.318 0-1.44.774-2.3t2.063-.859q1.149 0 1.812.78.664.778.707 1.879m-.989-.29q-.064-.623-.454-1.077-.389-.454-1.12-.454-.714 0-1.176.473t-.505 1.063ZM96.645 58.272V62h-.994v-3.728q0-.81-.284-1.192-.285-.381-.892-.381-.693 0-1.066.491-.373.492-.373 1.41V62h-.989v-6.016h.989v.903q.263-.516.714-.782t1.069-.266q.918 0 1.372.605.454.604.454 1.828M102.608 56.752v-3.11h.989V62h-.989v-.757q-.247.445-.658.68-.41.233-.948.233-1.09 0-1.716-.846t-.625-2.334q0-1.466.628-2.301t1.713-.836q.543 0 .956.234.414.234.65.68m-2.905 2.246q0 1.149.365 1.734.365.586 1.08.586.714 0 1.087-.59.373-.592.373-1.73 0-1.144-.373-1.733-.373-.588-1.088-.588-.714 0-1.08.586-.364.585-.364 1.735M111.016 58.498v.483h-4.281v.033q-.043 1.23.47 1.767t1.447.537q.473 0 .989-.15.515-.15 1.1-.457v.983q-.563.23-1.087.346t-1.012.116q-1.402 0-2.192-.84-.79-.841-.79-2.318 0-1.44.774-2.3t2.063-.859q1.149 0 1.812.78.664.778.707 1.879m-.989-.29q-.064-.623-.454-1.077-.389-.454-1.12-.454-.714 0-1.176.473t-.505 1.063ZM116.608 56.752v-3.11h.989V62h-.989v-.757q-.247.445-.658.68-.41.233-.948.233-1.09 0-1.716-.846t-.625-2.334q0-1.466.628-2.301t1.713-.836q.543 0 .956.234.414.234.65.68m-2.905 2.246q0 1.149.365 1.734.365.586 1.08.586.714 0 1.087-.59.373-.592.373-1.73 0-1.144-.373-1.733-.373-.588-1.088-.588-.714 0-1.08.586-.364.585-.364 1.735M142.879 65.32V51.3h.86v14.02ZM146.893 59.336v-.924h6.837v.924ZM153.893 59.336v-.924h6.837v.924ZM160.893 59.336v-.924h6.837v.924ZM167.893 59.336v-.924h6.837v.924ZM174.893 59.336v-.924h6.837v.924ZM181.893 59.336v-.924h6.837v.924ZM188.893 59.336v-.924h6.837v.924ZM195.893 59.336v-.924h6.837v.924ZM202.893 59.336v-.924h6.837v.924ZM209.893 59.336v-.924h6.837v.924ZM216.893 59.336v-.924h6.837v.924ZM226.879 65.32v-5.984h-2.986v-.924h3.845v6.907Z"/><path d="M464.879 65.32v-6.908h3.851v.924h-2.992v5.983ZM468.893 59.336v-.924h6.837v.924ZM476.032 62.419v-6.553l6.558 3.277ZM485.879 65.32V51.3h.86v14.02ZM515.608 56.752v-3.11h.989V62h-.989v-.757q-.247.445-.658.68-.41.233-.948.233-1.09 0-1.716-.846t-.625-2.334q0-1.466.628-2.301t1.713-.836q.543 0 .956.234.414.234.65.68m-2.905 2.246q0 1.149.365 1.734.365.586 1.08.586.714 0 1.087-.59.373-.592.373-1.73 0-1.144-.373-1.733-.373-.588-1.088-.588-.714 0-1.08.586-.364.585-.364 1.735M519.697 56.006h2.53v5.226h1.96V62h-4.909v-.768h1.96v-4.458h-1.54Zm1.542-2.337h.988v1.247h-.988ZM530.226 56.194v.967q-.424-.247-.854-.371-.43-.123-.875-.123-.672 0-1.002.217-.33.218-.33.663 0 .403.247.602t1.23.387l.397.075q.736.14 1.115.558.378.42.378 1.09 0 .892-.634 1.395-.633.502-1.761.502-.446 0-.935-.094t-1.058-.282v-1.02q.553.284 1.058.426t.956.143q.655 0 1.015-.266t.36-.744q0-.688-1.316-.95l-.043-.012-.37-.075q-.854-.166-1.246-.561t-.392-1.077q0-.865.585-1.335t1.67-.47q.484 0 .93.089.445.089.875.266M537.699 61.694q-.398.23-.82.346t-.861.116q-1.397 0-2.184-.838t-.787-2.32.787-2.32q.787-.839 2.184-.839.435 0 .848.113.414.113.833.35v1.036q-.392-.35-.787-.505t-.894-.156q-.93 0-1.43.602-.499.601-.499 1.719 0 1.111.503 1.716.502.604 1.426.604.515 0 .923-.159.409-.158.758-.491ZM542.77 58.976h-.327q-.865 0-1.303.304-.437.303-.437.905 0 .542.327.843.328.3.908.3.816 0 1.284-.566.467-.567.472-1.566v-.22Zm1.918-.408V62h-.994v-.892q-.317.538-.797.793t-1.168.255q-.919 0-1.467-.519-.548-.518-.548-1.388 0-1.004.674-1.525t1.98-.521h1.326v-.156q-.005-.72-.365-1.045t-1.15-.325q-.504 0-1.02.145-.515.145-1.004.425v-.989q.548-.21 1.05-.314t.975-.105q.746 0 1.275.22.53.22.857.661.204.269.29.664.086.394.086 1.184M552.204 57.225q-.317-.247-.645-.36t-.72-.113q-.923 0-1.412.58t-.489 1.676V62h-.994v-6.016h.994v1.177q.247-.64.76-.98.513-.342 1.217-.342.365 0 .682.092.317.091.607.284ZM557.608 56.752v-3.11h.989V62h-.989v-.757q-.247.445-.658.68-.41.233-.948.233-1.09 0-1.716-.846t-.625-2.334q0-1.466.628-2.301t1.713-.836q.543 0 .956.234.414.234.65.68m-2.905 2.246q0 1.149.365 1.734.365.586 1.08.586.714 0 1.087-.59.373-.592.373-1.73 0-1.144-.373-1.733-.373-.588-1.088-.588-.714 0-1.08.586-.364.585-.364 1.735M566.016 58.498v.483h-4.281v.033q-.043 1.23.47 1.767t1.447.537q.473 0 .989-.15.515-.15 1.1-.457v.983q-.563.23-1.087.346t-1.012.116q-1.402 0-2.192-.84-.79-.841-.79-2.318 0-1.44.774-2.3t2.063-.859q1.149 0 1.812.78.664.778.707 1.879m-.989-.29q-.064-.623-.454-1.077-.389-.454-1.12-.454-.714 0-1.176.473t-.505 1.063ZM571.608 56.752v-3.11h.989V62h-.989v-.757q-.247.445-.658.68-.41.233-.948.233-1.09 0-1.716-.846t-.625-2.334q0-1.466.628-2.301t1.713-.836q.543 0 .956.234.414.234.65.68m-2.905 2.246q0 1.149.365 1.734.365.586 1.08.586.714 0 1.087-.59.373-.592.373-1.73 0-1.144-.373-1.733-.373-.588-1.088-.588-.714 0-1.08.586-.364.585-.364 1.735M597.879 65.32V51.3h.86v14.02ZM30.879 52.32v-6.908h3.851v.924h-2.992v5.983ZM34.893 46.336v-.924h6.837v.924ZM41.893 46.336v-.924h6.837v.924ZM48.893 46.336v-.924h6.837v.924ZM55.893 46.336v-.924h6.837v.924ZM62.893 46.336v-.924h6.837v.924ZM69.893 46.336v-.924h6.837v.924ZM76.893 46.336v-.924h6.837v.924ZM83.893 46.336v-.924h6.837v.924ZM90.893 46.336v-.924h6.837v.924ZM97.893 46.336v-.924h6.837v.924ZM104.893 46.336v-.924h6.837v.924ZM111.893 46.336v-.924h6.837v.924ZM118.893 46.336v-.924h6.837v.924ZM125.893 46.336v-.924h6.837v.924ZM132.893 46.336v-.924h6.837v.924ZM142.879 52.32v-5.984h-2.986v-.924h3.845v6.907ZM296.879 52.32V38.3h.86v14.02ZM471.879 52.32V38.3h.86v14.02Z"/><path d="M485.879 52.32v-6.908h3.851v.924h-2.992v5.983ZM489.893 46.336v-.924h6.837v.924ZM496.893 46.336v-.924h6.837v.924ZM503.893 46.336v-.924h6.837v.924ZM510.893 46.336v-.924h6.837v.924ZM517.893 46.336v-.924h6.837v.924ZM524.893 46.336v-.924h6.837v.924ZM531.893 46.336v-.924h6.837v.924ZM538.893 46.336v-.924h6.837v.924ZM545.893 46.336v-.924h6.837v.924ZM552.893 46.336v-.924h6.837v.924ZM559.893 46.336v-.924h6.837v.924ZM566.893 46.336v-.924h6.837v.924ZM573.893 46.336v-.924h6.837v.924ZM580.893 46.336v-.924h6.837v.924ZM587.893 46.336v-.924h6.837v.924ZM597.879 52.32v-5.984h-2.986v-.924h3.845v6.907ZM611.879 52.32V38.3h.86v14.02ZM27.893 20.336v-.924h6.837v.924ZM41.893 20.336v-.924h6.837v.924ZM55.893 20.336v-.924h6.837v.924ZM69.893 20.336v-.924h6.837v.924ZM83.893 20.336v-.924h6.837v.924ZM97.893 20.336v-.924h6.837v.924ZM111.893 20.336v-.924h6.837v.924ZM125.893 20.336v-.924h6.837v.924ZM139.893 20.336v-.924h6.837v.924ZM153.893 20.336v-.924h6.837v.924ZM167.893 20.336v-.924h6.837v.924ZM181.893 20.336v-.924h6.837v.924ZM195.893 20.336v-.924h6.837v.924ZM209.893 20.336v-.924h6.837v.924ZM223.893 20.336v-.924h6.837v.924ZM237.893 20.336v-.924h6.837v.924ZM251.893 20.336v-.924h6.837v.924ZM265.893 20.336v-.924h6.837v.924ZM279.893 20.336v-.924h6.837v.924ZM296.879 26.32v-5.984h-2.986v-.924h3.845v6.907ZM471.879 26.32v-6.908h3.851v.924h-2.992v5.983ZM482.893 20.336v-.924h6.837v.924ZM496.893 20.336v-.924h6.837v.924ZM510.893 20.336v-.924h6.837v.924ZM524.893 20.336v-.924h6.837v.924ZM538.893 20.336v-.924h6.837v.924ZM552.893 20.336v-.924h6.837v.924ZM566.893 20.336v-.924h6.837v.924ZM580.893 20.336v-.924h6.837v.924ZM594.893 20.336v-.924h6.837v.924ZM611.879 26.32v-5.984h-2.986v-.924h3.845v6.907Z"/>
</svg>
